<svg width="31" height="32" xmlns="http://www.w3.org/2000/svg" xmlns:xlink="http://www.w3.org/1999/xlink" overflow="hidden"><defs><clipPath id="clip0"><rect x="582" y="344" width="31" height="32"/></clipPath></defs><g clip-path="url(#clip0)" transform="translate(-582 -344)"><path d="M597 345C605.284 345 612 351.716 612 360 612 368.284 605.284 375 597 375 588.716 375 582 368.284 582 360 582 351.716 588.716 345 597 345" fill="#D6E6FF" fill-rule="evenodd"/><path d="M604.021 359 597.807 359 595.85 359 589.979 359C589.438 359 589 359.448 589 360 589 360.552 589.438 361 589.979 361L595.85 361 597.807 361 604.021 361C604.562 361 605 360.552 605 360 605 359.448 604.562 359 604.021 359" fill="#044DC3" fill-rule="evenodd"/></g></svg>